:FULLY-SPECIFIED
:FORCE-ALL-JOINTS-BE-3DOF
:DEGREES
781
root 1.60099 16.3291 18.6826 -9.9586 74.7957 -16.4187
lfemur -38.9557 16.0168 -15.7165
ltibia 51.84 -0 0
lfoot -22.3093 19.5611 -0.136044
ltoes 20.0662 -0 0
rfemur -14.9366 -23.2411 22.0612
rtibia 50.1466 -0 0
rfoot -21.2353 -34.5606 -0.494004
rtoes -25.4259 0 0
lowerback 1.00476 4.64335 -0.773601
upperback -1.03464 6.17422 -3.81589
thorax -1.28299 3.09875 -3.60356
lowerneck -5.34286 -6.55816 -0.730028
upperneck -2.76952 -8.60541 5.2987
head 0.312089 -4.23236 1.58946
lclavicle 5.3945e-14 -5.22056e-15 1.46017e-30
lhumerus -55.9317 -11.371 94.6858
lradius 70.8555 -0 0
lwrist 13.0245 0 0
lhand -18.9894 -4.87501 0.034723
lfingers 7.12502 -0 0
lthumb 7.31532 24.9821 0.0326323
rclavicle 5.3945e-14 -5.22056e-15 1.46017e-30
rhumerus -31.0154 47.855 -112.363
rradius 79.1499 -0 0
rwrist 6.2585 0 0
rhand -23.3395 -20.786 -0.0137961
rfingers 7.12502 -0 0
rthumb 3.11549 -50.7515 -0.0146976
782
root 1.57277 16.3496 18.7733 -6.76899 71.8748 -13.2035
lfemur -38.9672 15.0305 -15.3751
ltibia 51.9723 -0 0
lfoot -22.0798 18.3116 -0.175783
ltoes 19.6364 -0 0
rfemur -14.7906 -22.3769 21.9605
rtibia 49.3606 -0 0
rfoot -21.748 -33.9224 -0.591151
rtoes -25.7209 0 0
lowerback 1.00324 4.62237 -0.574882
upperback -1.00343 6.14853 -3.73121
thorax -1.24026 3.08395 -3.62383
lowerneck -5.37844 -6.41483 -0.645069
upperneck -2.72305 -8.42397 5.16903
head 0.317794 -4.14367 1.53886
lclavicle 4.7171e-14 -4.75383e-15 1.99716e-30
lhumerus -55.9775 -11.2423 94.6484
lradius 70.821 -0 0
lwrist 13.6306 0 0
lhand -18.6093 -4.442 0.0464315
lfingers 7.12502 -0 0
lthumb 7.68216 25.4026 0.0437367
rclavicle 4.7171e-14 -4.75383e-15 1.99716e-30
rhumerus -31.4679 47.6462 -112.71
rradius 78.7927 -0 0
rwrist 6.18 0 0
rhand -23.4341 -21.2164 -0.0190049
rfingers 7.12502 -0 0
rthumb 3.02428 -51.1874 -0.0204812
783
root 1.54911 16.3706 18.8624 -4.52468 68.9449 -10.9335
lfemur -39.0034 13.9544 -15.0392
ltibia 52.1677 -0 0
lfoot -21.8761 16.8932 -0.21152
ltoes 19.1254 -0 0
rfemur -14.6744 -21.4625 21.8506
rtibia 48.6505 -0 0
rfoot -22.1727 -33.1116 -0.656007
rtoes -25.8349 0 0
lowerback 1.01414 4.60126 -0.370284
upperback -0.966424 6.12278 -3.63779
thorax -1.19913 3.06911 -3.63953
lowerneck -5.41739 -6.26752 -0.557417
upperneck -2.66795 -8.23782 5.03142
head 0.326394 -4.05257 1.4851
lclavicle 3.93002e-14 -4.25414e-15 2.50994e-30
lhumerus -56.0048 -11.1001 94.5898
lradius 70.7491 -0 0
lwrist 14.3006 0 0
lhand -18.2344 -3.97728 0.0573704
lfingers 7.12502 -0 0
lthumb 8.044 25.854 0.0541461
rclavicle 3.93002e-14 -4.25414e-15 2.50994e-30
rhumerus -31.8982 47.4433 -113.05
rradius 78.4313 -0 0
rwrist 6.09479 0 0
rhand -23.5202 -21.6818 -0.0246519
rfingers 7.12502 -0 0
rthumb 2.94134 -51.6584 -0.026778
784
root 1.52972 16.3917 18.95 -2.87692 66.025 -9.26076
lfemur -39.0615 12.8033 -14.7067
ltibia 52.4118 -0 0
lfoot -21.694 15.3338 -0.242989
ltoes 18.5457 -0 0
rfemur -14.582 -20.5046 21.7322
rtibia 48.0068 -0 0
rfoot -22.5167 -32.1502 -0.691093
rtoes -25.7884 0 0
lowerback 1.03574 4.58047 -0.160701
upperback -0.924436 6.09762 -3.53661
thorax -1.15937 3.05459 -3.65103
lowerneck -5.4591 -6.11677 -0.467306
upperneck -2.60516 -8.04759 4.88708
head 0.337592 -3.9594 1.42861
lclavicle 3.05016e-14 -3.72765e-15 2.97198e-30
lhumerus -56.0152 -10.946 94.5124
lradius 70.6415 -0 0
lwrist 15.0237 0 0
lhand -17.8644 -3.48582 0.0671465
lfingers 7.12502 -0 0
lthumb 8.40102 26.3315 0.0634805
rclavicle 3.05016e-14 -3.72765e-15 2.97198e-30
rhumerus -32.3058 47.2465 -113.382
rradius 78.0667 -0 0
rwrist 6.00276 0 0
rhand -23.5954 -22.1753 -0.0307111
rfingers 7.12502 -0 0
rthumb 2.86883 -52.1576 -0.0335269
785
root 1.51431 16.413 19.0368 -1.62747 63.1269 -7.98778
lfemur -39.1385 11.5921 -14.3749
ltibia 52.6903 -0 0
lfoot -21.529 13.6613 -0.270049
ltoes 17.9099 -0 0
rfemur -14.5075 -19.5102 21.6064
rtibia 47.4202 -0 0
rfoot -22.787 -31.06 -0.699635
rtoes -25.6017 0 0
lowerback 1.06635 4.56046 0.0529768
upperback -0.878284 6.07368 -3.42868
thorax -1.12076 3.04072 -3.65869
lowerneck -5.50292 -5.96314 -0.374967
upperneck -2.53559 -7.85393 4.73719
head 0.351094 -3.86449 1.36981
lclavicle 2.09442e-14 -3.18056e-15 3.36024e-30
lhumerus -56.0104 -10.7815 94.4183
lradius 70.4999 -0 0
lwrist 15.7889 0 0
lhand -17.4993 -2.97258 0.0754356
lfingers 7.12502 -0 0
lthumb 8.75335 26.83 0.0714253
rclavicle 2.09442e-14 -3.18056e-15 3.36024e-30
rhumerus -32.6902 47.056 -113.704
rradius 77.6997 -0 0
rwrist 5.90378 0 0
rhand -23.6576 -22.6904 -0.0370852
rfingers 7.12502 -0 0
rthumb 2.80892 -52.6782 -0.0405971
786
root 1.5026 16.4343 19.1229 -0.656083 60.2582 -6.99517
lfemur -39.2312 10.3356 -14.0418
ltibia 52.9888 -0 0
lfoot -21.3772 11.9038 -0.292598
ltoes 17.2304 -0 0
rfemur -14.4451 -18.486 21.4742
rtibia 46.8813 -0 0
rfoot -22.9908 -29.8626 -0.68533
rtoes -25.295 0 0
lowerback 1.10427 4.54168 0.269859
upperback -0.828778 6.05161 -3.31497
thorax -1.08305 3.02785 -3.66287
lowerneck -5.54822 -5.80719 -0.280626
upperneck -2.46017 -7.65751 4.58295
head 0.36661 -3.76818 1.30913
lclavicle 1.0797e-14 -2.61904e-15 3.65599e-30
lhumerus -55.9919 -10.6084 94.3096
lradius 70.3259 -0 0
lwrist 16.5856 0 0
lhand -17.1389 -2.44251 0.0819802
lfingers 7.12502 -0 0
lthumb 9.10111 27.3449 0.0777294
rclavicle 1.0797e-14 -2.61904e-15 3.65599e-30
rhumerus -33.0508 46.8718 -114.013
rradius 77.3309 -0 0
rwrist 5.79774 0 0
rhand -23.7046 -23.2202 -0.0436049
rfingers 7.12502 -0 0
rthumb 2.76379 -53.2131 -0.0477875
787
root 1.4943 16.4554 19.209 0.11416 57.4249 -6.2069
lfemur -39.3368 9.0484 -13.705
ltibia 53.2929 -0 0
lfoot -21.2343 10.0892 -0.310497
ltoes 16.5199 -0 0
rfemur -14.3887 -17.4388 21.3368
rtibia 46.3807 -0 0
rfoot -23.1351 -28.5796 -0.65214
rtoes -24.8888 0 0
lowerback 1.14781 4.52461 0.48906
upperback -0.776725 6.03206 -3.19649
thorax -1.04604 3.01633 -3.66393
lowerneck -5.59438 -5.64947 -0.184505
upperneck -2.37978 -7.45898 4.42553
head 0.383848 -3.67082 1.24698
lclavicle 2.2894e-16 -2.04928e-15 3.84545e-30
lhumerus -55.9614 -10.4282 94.1886
lradius 70.1213 -0 0
lwrist 17.4029 0 0
lhand -16.7831 -1.90058 0.0865871
lfingers 7.12502 -0 0
lthumb 9.44444 27.871 0.0822033
rclavicle 2.2894e-16 -2.04928e-15 3.84545e-30
rhumerus -33.3873 46.6943 -114.308
rradius 76.9613 -0 0
rwrist 5.68453 0 0
rhand -23.7339 -23.758 -0.0500375
rfingers 7.12502 -0 0
rthumb 2.73559 -53.7553 -0.0548347
